<svg width="119" height="28" viewBox="0 0 119 28" fill="none" xmlns="http://www.w3.org/2000/svg">
<g clip-path="url(#clip0_2029_123)">
<path d="M14.3629 26.6823C19.5394 26.6823 22.3218 20.4058 18.7629 16.7176L18.6982 16.6529L10.9335 8.88818L3.16885 16.6529L3.10414 16.7176C-0.519387 20.4058 2.32768 26.6823 7.50412 26.6823H14.3629Z" fill="white"/>
<path d="M3.16887 11.3471L4.13946 12.3177L10.9335 5.52358L17.7277 12.3177L18.6983 11.3471C21.1571 8.88829 22.1277 5.71771 21.8688 2.74124C21.7394 1.57653 20.7688 0.735352 19.6041 0.735352H2.3277C1.163 0.735352 0.127703 1.57653 0.0629969 2.74124C-0.260532 5.71771 0.645341 8.82358 3.16887 11.3471Z" fill="white"/>
</g>
<path d="M35.368 8.148H44.242V10.092H37.618V13.458H43.432V15.294H37.618V21H35.368V8.148ZM45.3899 11.694H47.3159V13.494H47.3519C47.4119 13.242 47.5259 12.996 47.6939 12.756C47.8739 12.516 48.0839 12.3 48.3239 12.108C48.5759 11.904 48.8519 11.742 49.1519 11.622C49.4519 11.502 49.7579 11.442 50.0699 11.442C50.3099 11.442 50.4719 11.448 50.5559 11.46C50.6519 11.472 50.7479 11.484 50.8439 11.496V13.476C50.6999 13.452 50.5499 13.434 50.3939 13.422C50.2499 13.398 50.1059 13.386 49.9619 13.386C49.6139 13.386 49.2839 13.458 48.9719 13.602C48.6719 13.734 48.4079 13.938 48.1799 14.214C47.9519 14.478 47.7719 14.808 47.6399 15.204C47.5079 15.6 47.4419 16.056 47.4419 16.572V21H45.3899V11.694ZM57.4316 15.528C57.4076 15.204 57.3356 14.892 57.2156 14.592C57.1076 14.292 56.9516 14.034 56.7476 13.818C56.5556 13.59 56.3156 13.41 56.0276 13.278C55.7516 13.134 55.4396 13.062 55.0916 13.062C54.7316 13.062 54.4016 13.128 54.1016 13.26C53.8136 13.38 53.5616 13.554 53.3456 13.782C53.1416 13.998 52.9736 14.256 52.8416 14.556C52.7216 14.856 52.6556 15.18 52.6436 15.528H57.4316ZM52.6436 16.878C52.6436 17.238 52.6916 17.586 52.7876 17.922C52.8956 18.258 53.0516 18.552 53.2556 18.804C53.4596 19.056 53.7176 19.26 54.0296 19.416C54.3416 19.56 54.7136 19.632 55.1456 19.632C55.7456 19.632 56.2256 19.506 56.5856 19.254C56.9576 18.99 57.2336 18.6 57.4136 18.084H59.3576C59.2496 18.588 59.0636 19.038 58.7996 19.434C58.5356 19.83 58.2176 20.166 57.8456 20.442C57.4736 20.706 57.0536 20.904 56.5856 21.036C56.1296 21.18 55.6496 21.252 55.1456 21.252C54.4136 21.252 53.7656 21.132 53.2016 20.892C52.6376 20.652 52.1576 20.316 51.7616 19.884C51.3776 19.452 51.0836 18.936 50.8796 18.336C50.6876 17.736 50.5916 17.076 50.5916 16.356C50.5916 15.696 50.6936 15.072 50.8976 14.484C51.1136 13.884 51.4136 13.362 51.7976 12.918C52.1936 12.462 52.6676 12.102 53.2196 11.838C53.7716 11.574 54.3956 11.442 55.0916 11.442C55.8236 11.442 56.4776 11.598 57.0536 11.91C57.6416 12.21 58.1276 12.612 58.5116 13.116C58.8956 13.62 59.1716 14.202 59.3396 14.862C59.5196 15.51 59.5676 16.182 59.4836 16.878H52.6436ZM67.0736 15.528C67.0496 15.204 66.9776 14.892 66.8576 14.592C66.7496 14.292 66.5936 14.034 66.3896 13.818C66.1976 13.59 65.9576 13.41 65.6696 13.278C65.3936 13.134 65.0816 13.062 64.7336 13.062C64.3736 13.062 64.0436 13.128 63.7436 13.26C63.4556 13.38 63.2036 13.554 62.9876 13.782C62.7836 13.998 62.6156 14.256 62.4836 14.556C62.3636 14.856 62.2976 15.18 62.2856 15.528H67.0736ZM62.2856 16.878C62.2856 17.238 62.3336 17.586 62.4296 17.922C62.5376 18.258 62.6936 18.552 62.8976 18.804C63.1016 19.056 63.3596 19.26 63.6716 19.416C63.9836 19.56 64.3556 19.632 64.7876 19.632C65.3876 19.632 65.8676 19.506 66.2276 19.254C66.5996 18.99 66.8756 18.6 67.0556 18.084H68.9996C68.8916 18.588 68.7056 19.038 68.4416 19.434C68.1776 19.83 67.8596 20.166 67.4876 20.442C67.1156 20.706 66.6956 20.904 66.2276 21.036C65.7716 21.18 65.2916 21.252 64.7876 21.252C64.0556 21.252 63.4076 21.132 62.8436 20.892C62.2796 20.652 61.7996 20.316 61.4036 19.884C61.0196 19.452 60.7256 18.936 60.5216 18.336C60.3296 17.736 60.2336 17.076 60.2336 16.356C60.2336 15.696 60.3356 15.072 60.5396 14.484C60.7556 13.884 61.0556 13.362 61.4396 12.918C61.8356 12.462 62.3096 12.102 62.8616 11.838C63.4136 11.574 64.0376 11.442 64.7336 11.442C65.4656 11.442 66.1196 11.598 66.6956 11.91C67.2836 12.21 67.7696 12.612 68.1536 13.116C68.5376 13.62 68.8136 14.202 68.9816 14.862C69.1616 15.51 69.2096 16.182 69.1256 16.878H62.2856ZM70.3795 8.148H72.4315V21H70.3795V8.148ZM82.1013 18.93C82.1013 19.182 82.1313 19.362 82.1913 19.47C82.2633 19.578 82.3953 19.632 82.5873 19.632C82.6473 19.632 82.7193 19.632 82.8033 19.632C82.8873 19.632 82.9833 19.62 83.0913 19.596V21.018C83.0193 21.042 82.9233 21.066 82.8033 21.09C82.6953 21.126 82.5813 21.156 82.4613 21.18C82.3413 21.204 82.2213 21.222 82.1013 21.234C81.9813 21.246 81.8793 21.252 81.7953 21.252C81.3753 21.252 81.0273 21.168 80.7513 21C80.4753 20.832 80.2953 20.538 80.2113 20.118C79.8033 20.514 79.2993 20.802 78.6993 20.982C78.1113 21.162 77.5413 21.252 76.9893 21.252C76.5693 21.252 76.1673 21.192 75.7833 21.072C75.3993 20.964 75.0573 20.802 74.7573 20.586C74.4693 20.358 74.2353 20.076 74.0553 19.74C73.8873 19.392 73.8033 18.99 73.8033 18.534C73.8033 17.958 73.9053 17.49 74.1093 17.13C74.3253 16.77 74.6013 16.488 74.9373 16.284C75.2853 16.08 75.6693 15.936 76.0893 15.852C76.5213 15.756 76.9533 15.684 77.3853 15.636C77.7573 15.564 78.1113 15.516 78.4473 15.492C78.7833 15.456 79.0773 15.402 79.3293 15.33C79.5933 15.258 79.7973 15.15 79.9413 15.006C80.0973 14.85 80.1753 14.622 80.1753 14.322C80.1753 14.058 80.1093 13.842 79.9773 13.674C79.8573 13.506 79.7013 13.38 79.5093 13.296C79.3293 13.2 79.1253 13.14 78.8973 13.116C78.6693 13.08 78.4533 13.062 78.2493 13.062C77.6733 13.062 77.1993 13.182 76.8273 13.422C76.4553 13.662 76.2453 14.034 76.1973 14.538H74.1453C74.1813 13.938 74.3253 13.44 74.5773 13.044C74.8293 12.648 75.1473 12.33 75.5313 12.09C75.9273 11.85 76.3713 11.682 76.8633 11.586C77.3553 11.49 77.8593 11.442 78.3753 11.442C78.8313 11.442 79.2813 11.49 79.7253 11.586C80.1693 11.682 80.5653 11.838 80.9133 12.054C81.2733 12.27 81.5613 12.552 81.7773 12.9C81.9933 13.236 82.1013 13.65 82.1013 14.142V18.93ZM80.0493 16.338C79.7373 16.542 79.3533 16.668 78.8973 16.716C78.4413 16.752 77.9853 16.812 77.5293 16.896C77.3133 16.932 77.1033 16.986 76.8993 17.058C76.6953 17.118 76.5153 17.208 76.3593 17.328C76.2033 17.436 76.0773 17.586 75.9813 17.778C75.8973 17.958 75.8553 18.18 75.8553 18.444C75.8553 18.672 75.9213 18.864 76.0533 19.02C76.1853 19.176 76.3413 19.302 76.5213 19.398C76.7133 19.482 76.9173 19.542 77.1333 19.578C77.3613 19.614 77.5653 19.632 77.7453 19.632C77.9733 19.632 78.2193 19.602 78.4833 19.542C78.7473 19.482 78.9933 19.38 79.2213 19.236C79.4613 19.092 79.6593 18.912 79.8153 18.696C79.9713 18.468 80.0493 18.192 80.0493 17.868V16.338ZM83.9493 11.694H85.8933V13.062L85.9293 13.098C86.2413 12.582 86.6493 12.18 87.1533 11.892C87.6573 11.592 88.2153 11.442 88.8273 11.442C89.8473 11.442 90.6513 11.706 91.2393 12.234C91.8273 12.762 92.1213 13.554 92.1213 14.61V21H90.0693V15.15C90.0453 14.418 89.8893 13.89 89.6013 13.566C89.3133 13.23 88.8633 13.062 88.2513 13.062C87.9033 13.062 87.5913 13.128 87.3153 13.26C87.0393 13.38 86.8053 13.554 86.6133 13.782C86.4213 13.998 86.2713 14.256 86.1633 14.556C86.0553 14.856 86.0013 15.174 86.0013 15.51V21H83.9493V11.694ZM100.207 14.808C100.123 14.232 99.8892 13.8 99.5052 13.512C99.1332 13.212 98.6592 13.062 98.0832 13.062C97.8192 13.062 97.5372 13.11 97.2372 13.206C96.9372 13.29 96.6612 13.458 96.4092 13.71C96.1572 13.95 95.9472 14.292 95.7792 14.736C95.6112 15.168 95.5272 15.738 95.5272 16.446C95.5272 16.83 95.5692 17.214 95.6532 17.598C95.7492 17.982 95.8932 18.324 96.0852 18.624C96.2892 18.924 96.5472 19.17 96.8592 19.362C97.1712 19.542 97.5492 19.632 97.9932 19.632C98.5932 19.632 99.0852 19.446 99.4692 19.074C99.8652 18.702 100.111 18.18 100.207 17.508H102.259C102.067 18.72 101.605 19.65 100.873 20.298C100.153 20.934 99.1932 21.252 97.9932 21.252C97.2612 21.252 96.6132 21.132 96.0492 20.892C95.4972 20.64 95.0292 20.304 94.6452 19.884C94.2612 19.452 93.9672 18.942 93.7632 18.354C93.5712 17.766 93.4752 17.13 93.4752 16.446C93.4752 15.75 93.5712 15.096 93.7632 14.484C93.9552 13.872 94.2432 13.344 94.6272 12.9C95.0112 12.444 95.4852 12.09 96.0492 11.838C96.6252 11.574 97.2972 11.442 98.0652 11.442C98.6052 11.442 99.1152 11.514 99.5952 11.658C100.087 11.79 100.519 11.994 100.891 12.27C101.275 12.546 101.587 12.894 101.827 13.314C102.067 13.734 102.211 14.232 102.259 14.808H100.207ZM109.957 15.528C109.933 15.204 109.861 14.892 109.741 14.592C109.633 14.292 109.477 14.034 109.273 13.818C109.081 13.59 108.841 13.41 108.553 13.278C108.277 13.134 107.965 13.062 107.617 13.062C107.257 13.062 106.927 13.128 106.627 13.26C106.339 13.38 106.087 13.554 105.871 13.782C105.667 13.998 105.499 14.256 105.367 14.556C105.247 14.856 105.181 15.18 105.169 15.528H109.957ZM105.169 16.878C105.169 17.238 105.217 17.586 105.313 17.922C105.421 18.258 105.577 18.552 105.781 18.804C105.985 19.056 106.243 19.26 106.555 19.416C106.867 19.56 107.239 19.632 107.671 19.632C108.271 19.632 108.751 19.506 109.111 19.254C109.483 18.99 109.759 18.6 109.939 18.084H111.883C111.775 18.588 111.589 19.038 111.325 19.434C111.061 19.83 110.743 20.166 110.371 20.442C109.999 20.706 109.579 20.904 109.111 21.036C108.655 21.18 108.175 21.252 107.671 21.252C106.939 21.252 106.291 21.132 105.727 20.892C105.163 20.652 104.683 20.316 104.287 19.884C103.903 19.452 103.609 18.936 103.405 18.336C103.213 17.736 103.117 17.076 103.117 16.356C103.117 15.696 103.219 15.072 103.423 14.484C103.639 13.884 103.939 13.362 104.323 12.918C104.719 12.462 105.193 12.102 105.745 11.838C106.297 11.574 106.921 11.442 107.617 11.442C108.349 11.442 109.003 11.598 109.579 11.91C110.167 12.21 110.653 12.612 111.037 13.116C111.421 13.62 111.697 14.202 111.865 14.862C112.045 15.51 112.093 16.182 112.009 16.878H105.169ZM113.209 11.694H115.135V13.494H115.171C115.231 13.242 115.345 12.996 115.513 12.756C115.693 12.516 115.903 12.3 116.143 12.108C116.395 11.904 116.671 11.742 116.971 11.622C117.271 11.502 117.577 11.442 117.889 11.442C118.129 11.442 118.291 11.448 118.375 11.46C118.471 11.472 118.567 11.484 118.663 11.496V13.476C118.519 13.452 118.369 13.434 118.213 13.422C118.069 13.398 117.925 13.386 117.781 13.386C117.433 13.386 117.103 13.458 116.791 13.602C116.491 13.734 116.227 13.938 115.999 14.214C115.771 14.478 115.591 14.808 115.459 15.204C115.327 15.6 115.261 16.056 115.261 16.572V21H113.209V11.694Z" fill="white"/>
<defs>
<clipPath id="clip0_2029_123">
<rect width="22" height="26.5294" fill="white" transform="translate(0 0.735352)"/>
</clipPath>
</defs>
</svg>
